<svg width="128" height="41" viewBox="0 0 128 41" fill="none" xmlns="http://www.w3.org/2000/svg">
<rect x="0.5" y="1" width="126.98" height="39" rx="4.5" stroke="#011C47"/>
<path opacity="0.4" d="M39.5 11.875C39.5 10.8391 38.6609 10 37.625 10H32.375C31.3391 10 30.5 10.8391 30.5 11.875V17.125C30.5 18.1609 31.3391 19 32.375 19H37.625C38.6609 19 39.5 18.1609 39.5 17.125V11.875ZM27.5 23.875C27.5 22.8391 26.6609 22 25.625 22H20.375C19.3391 22 18.5 22.8391 18.5 23.875V29.125C18.5 30.1609 19.3391 31 20.375 31H25.625C26.6609 31 27.5 30.1609 27.5 29.125V23.875Z" fill="#011C47"/>
<path d="M27.5 12.25C27.5 11.0078 26.4922 10 25.25 10H20.75C19.5078 10 18.5 11.0078 18.5 12.25V16.75C18.5 17.9922 19.5078 19 20.75 19H25.25C26.4922 19 27.5 17.9922 27.5 16.75V12.25ZM39.5 24.25C39.5 23.0078 38.4922 22 37.25 22H32.75C31.5078 22 30.5 23.0078 30.5 24.25V28.75C30.5 29.9922 31.5078 31 32.75 31H37.25C38.4922 31 39.5 29.9922 39.5 28.75V24.25Z" fill="#011C47"/>
<path d="M52.3672 15.125V26.5H50.0234V15.125H52.3672ZM59.0703 15.125L54.7109 21.8047H51.8438L51.5469 19.7188H53.4609L56.2266 15.125H59.0703ZM56.6562 26.5L53.4688 21.4141L55.0938 19.7422L59.4375 26.5H56.6562ZM64.7812 24.5938V20.8281C64.7812 20.5573 64.737 20.3255 64.6484 20.1328C64.5599 19.9349 64.4219 19.7812 64.2344 19.6719C64.0521 19.5625 63.8151 19.5078 63.5234 19.5078C63.2734 19.5078 63.0573 19.5521 62.875 19.6406C62.6927 19.724 62.5521 19.8464 62.4531 20.0078C62.3542 20.1641 62.3047 20.349 62.3047 20.5625H60.0547C60.0547 20.2031 60.138 19.862 60.3047 19.5391C60.4714 19.2161 60.7135 18.9323 61.0312 18.6875C61.349 18.4375 61.7266 18.2422 62.1641 18.1016C62.6068 17.9609 63.1016 17.8906 63.6484 17.8906C64.3047 17.8906 64.888 18 65.3984 18.2188C65.9089 18.4375 66.3099 18.7656 66.6016 19.2031C66.8984 19.6406 67.0469 20.1875 67.0469 20.8438V24.4609C67.0469 24.9245 67.0755 25.3047 67.1328 25.6016C67.1901 25.8932 67.2734 26.1484 67.3828 26.3672V26.5H65.1094C65 26.2708 64.9167 25.9844 64.8594 25.6406C64.8073 25.2917 64.7812 24.9427 64.7812 24.5938ZM65.0781 21.3516L65.0938 22.625H63.8359C63.5391 22.625 63.2812 22.6589 63.0625 22.7266C62.8438 22.7943 62.6641 22.8906 62.5234 23.0156C62.3828 23.1354 62.2786 23.276 62.2109 23.4375C62.1484 23.599 62.1172 23.776 62.1172 23.9688C62.1172 24.1615 62.1615 24.3359 62.25 24.4922C62.3385 24.6432 62.4661 24.763 62.6328 24.8516C62.7995 24.9349 62.9948 24.9766 63.2188 24.9766C63.5573 24.9766 63.8516 24.9089 64.1016 24.7734C64.3516 24.638 64.5443 24.4714 64.6797 24.2734C64.8203 24.0755 64.8932 23.888 64.8984 23.7109L65.4922 24.6641C65.4089 24.8776 65.2943 25.099 65.1484 25.3281C65.0078 25.5573 64.8281 25.7734 64.6094 25.9766C64.3906 26.1745 64.1276 26.3385 63.8203 26.4688C63.513 26.5938 63.1484 26.6562 62.7266 26.6562C62.1901 26.6562 61.7031 26.5495 61.2656 26.3359C60.8333 26.1172 60.4896 25.8177 60.2344 25.4375C59.9844 25.0521 59.8594 24.6146 59.8594 24.125C59.8594 23.6823 59.9427 23.2891 60.1094 22.9453C60.276 22.6016 60.5208 22.3125 60.8438 22.0781C61.1719 21.8385 61.5807 21.6589 62.0703 21.5391C62.5599 21.4141 63.1276 21.3516 63.7734 21.3516H65.0781ZM72.9609 18.0469V26.5H70.7031V18.0469H72.9609ZM75.6797 18.0469V19.7891H68.0234V18.0469H75.6797ZM81.2656 24.5938V20.8281C81.2656 20.5573 81.2214 20.3255 81.1328 20.1328C81.0443 19.9349 80.9062 19.7812 80.7188 19.6719C80.5365 19.5625 80.2995 19.5078 80.0078 19.5078C79.7578 19.5078 79.5417 19.5521 79.3594 19.6406C79.1771 19.724 79.0365 19.8464 78.9375 20.0078C78.8385 20.1641 78.7891 20.349 78.7891 20.5625H76.5391C76.5391 20.2031 76.6224 19.862 76.7891 19.5391C76.9557 19.2161 77.1979 18.9323 77.5156 18.6875C77.8333 18.4375 78.2109 18.2422 78.6484 18.1016C79.0911 17.9609 79.5859 17.8906 80.1328 17.8906C80.7891 17.8906 81.3724 18 81.8828 18.2188C82.3932 18.4375 82.7943 18.7656 83.0859 19.2031C83.3828 19.6406 83.5312 20.1875 83.5312 20.8438V24.4609C83.5312 24.9245 83.5599 25.3047 83.6172 25.6016C83.6745 25.8932 83.7578 26.1484 83.8672 26.3672V26.5H81.5938C81.4844 26.2708 81.401 25.9844 81.3438 25.6406C81.2917 25.2917 81.2656 24.9427 81.2656 24.5938ZM81.5625 21.3516L81.5781 22.625H80.3203C80.0234 22.625 79.7656 22.6589 79.5469 22.7266C79.3281 22.7943 79.1484 22.8906 79.0078 23.0156C78.8672 23.1354 78.763 23.276 78.6953 23.4375C78.6328 23.599 78.6016 23.776 78.6016 23.9688C78.6016 24.1615 78.6458 24.3359 78.7344 24.4922C78.8229 24.6432 78.9505 24.763 79.1172 24.8516C79.2839 24.9349 79.4792 24.9766 79.7031 24.9766C80.0417 24.9766 80.3359 24.9089 80.5859 24.7734C80.8359 24.638 81.0286 24.4714 81.1641 24.2734C81.3047 24.0755 81.3776 23.888 81.3828 23.7109L81.9766 24.6641C81.8932 24.8776 81.7786 25.099 81.6328 25.3281C81.4922 25.5573 81.3125 25.7734 81.0938 25.9766C80.875 26.1745 80.612 26.3385 80.3047 26.4688C79.9974 26.5938 79.6328 26.6562 79.2109 26.6562C78.6745 26.6562 78.1875 26.5495 77.75 26.3359C77.3177 26.1172 76.974 25.8177 76.7188 25.4375C76.4688 25.0521 76.3438 24.6146 76.3438 24.125C76.3438 23.6823 76.4271 23.2891 76.5938 22.9453C76.7604 22.6016 77.0052 22.3125 77.3281 22.0781C77.6562 21.8385 78.0651 21.6589 78.5547 21.5391C79.0443 21.4141 79.612 21.3516 80.2578 21.3516H81.5625ZM90.9531 18.0469V19.8125H86.7969V18.0469H90.9531ZM92.6016 18.0469V26.5H90.3516V18.0469H92.6016ZM86.2344 18.0469H88.4453L88.2188 22.3125C88.1875 22.9219 88.1224 23.4583 88.0234 23.9219C87.9245 24.3854 87.7917 24.7812 87.625 25.1094C87.4635 25.4375 87.2682 25.7057 87.0391 25.9141C86.8151 26.1172 86.5521 26.2656 86.25 26.3594C85.9531 26.4531 85.625 26.5 85.2656 26.5H84.5781L84.5547 24.7266L84.8438 24.6953C85.0104 24.6797 85.1562 24.6328 85.2812 24.5547C85.4115 24.4714 85.5208 24.3542 85.6094 24.2031C85.7031 24.0469 85.7812 23.8516 85.8438 23.6172C85.9062 23.3776 85.9557 23.0964 85.9922 22.7734C86.0339 22.4505 86.0625 22.0781 86.0781 21.6562L86.2344 18.0469ZM93.9844 22.3594V22.1953C93.9844 21.5755 94.0729 21.0052 94.25 20.4844C94.4271 19.9583 94.6849 19.5026 95.0234 19.1172C95.362 18.7318 95.7786 18.4323 96.2734 18.2188C96.7682 18 97.3359 17.8906 97.9766 17.8906C98.6172 17.8906 99.1875 18 99.6875 18.2188C100.188 18.4323 100.607 18.7318 100.945 19.1172C101.289 19.5026 101.549 19.9583 101.727 20.4844C101.904 21.0052 101.992 21.5755 101.992 22.1953V22.3594C101.992 22.974 101.904 23.5443 101.727 24.0703C101.549 24.5911 101.289 25.0469 100.945 25.4375C100.607 25.8229 100.19 26.1224 99.6953 26.3359C99.2005 26.5495 98.6328 26.6562 97.9922 26.6562C97.3516 26.6562 96.7812 26.5495 96.2812 26.3359C95.7865 26.1224 95.3672 25.8229 95.0234 25.4375C94.6849 25.0469 94.4271 24.5911 94.25 24.0703C94.0729 23.5443 93.9844 22.974 93.9844 22.3594ZM96.2344 22.1953V22.3594C96.2344 22.7135 96.2656 23.0443 96.3281 23.3516C96.3906 23.6589 96.4896 23.9297 96.625 24.1641C96.7656 24.3932 96.9479 24.5729 97.1719 24.7031C97.3958 24.8333 97.6693 24.8984 97.9922 24.8984C98.3047 24.8984 98.5729 24.8333 98.7969 24.7031C99.0208 24.5729 99.2005 24.3932 99.3359 24.1641C99.4714 23.9297 99.5703 23.6589 99.6328 23.3516C99.7005 23.0443 99.7344 22.7135 99.7344 22.3594V22.1953C99.7344 21.8516 99.7005 21.5286 99.6328 21.2266C99.5703 20.9193 99.4688 20.6484 99.3281 20.4141C99.1927 20.1745 99.013 19.987 98.7891 19.8516C98.5651 19.7161 98.2943 19.6484 97.9766 19.6484C97.6589 19.6484 97.388 19.7161 97.1641 19.8516C96.9453 19.987 96.7656 20.1745 96.625 20.4141C96.4896 20.6484 96.3906 20.9193 96.3281 21.2266C96.2656 21.5286 96.2344 21.8516 96.2344 22.1953ZM109.125 18.0469V19.8125H105.609V26.5H103.359V18.0469H109.125Z" fill="#011C47"/>
</svg>
